<svg width="18" height="20" viewBox="0 0 18 20" fill="none" xmlns="http://www.w3.org/2000/svg">
<path fill-rule="evenodd" clip-rule="evenodd" d="M12.3787 0C12.7503 0 13.0518 0.301537 13.0518 0.673074L13.0522 1.43393C14.3626 1.52376 15.4508 1.9726 16.2211 2.74444C17.062 3.58892 17.5044 4.80315 17.5 6.25968V14.447C17.5 17.4372 15.601 19.2949 12.5452 19.2949H4.95472C1.89897 19.2949 0 17.4112 0 14.3788V6.25789C0 3.43743 1.6935 1.62699 4.45547 1.43423L4.45602 0.673074C4.45602 0.301537 4.75756 0 5.1291 0C5.50063 0 5.80217 0.301537 5.80217 0.673074L5.8019 1.41705H11.7052L11.7057 0.673074C11.7057 0.301537 12.0072 0 12.3787 0ZM16.1538 7.99074H1.34615V14.3788C1.34615 16.6816 2.62768 17.9487 4.95472 17.9487H12.5452C14.8723 17.9487 16.1538 16.7049 16.1538 14.447L16.1538 7.99074ZM12.7446 13.6377C13.1162 13.6377 13.4177 13.9392 13.4177 14.3107C13.4177 14.6823 13.1162 14.9838 12.7446 14.9838C12.3731 14.9838 12.068 14.6823 12.068 14.3107C12.068 13.9392 12.365 13.6377 12.7365 13.6377H12.7446ZM8.76226 13.6377C9.1338 13.6377 9.43534 13.9392 9.43534 14.3107C9.43534 14.6823 9.1338 14.9838 8.76226 14.9838C8.39072 14.9838 8.0856 14.6823 8.0856 14.3107C8.0856 13.9392 8.38265 13.6377 8.75418 13.6377H8.76226ZM4.77156 13.6377C5.1431 13.6377 5.44463 13.9392 5.44463 14.3107C5.44463 14.6823 5.1431 14.9838 4.77156 14.9838C4.40002 14.9838 4.094 14.6823 4.094 14.3107C4.094 13.9392 4.39194 13.6377 4.76348 13.6377H4.77156ZM12.7446 10.1496C13.1162 10.1496 13.4177 10.4511 13.4177 10.8227C13.4177 11.1942 13.1162 11.4957 12.7446 11.4957C12.3731 11.4957 12.068 11.1942 12.068 10.8227C12.068 10.4511 12.365 10.1496 12.7365 10.1496H12.7446ZM8.76226 10.1496C9.1338 10.1496 9.43534 10.4511 9.43534 10.8227C9.43534 11.1942 9.1338 11.4957 8.76226 11.4957C8.39072 11.4957 8.0856 11.1942 8.0856 10.8227C8.0856 10.4511 8.38265 10.1496 8.75418 10.1496H8.76226ZM4.77156 10.1496C5.1431 10.1496 5.44463 10.4511 5.44463 10.8227C5.44463 11.1942 5.1431 11.4957 4.77156 11.4957C4.40002 11.4957 4.094 11.1942 4.094 10.8227C4.094 10.4511 4.39194 10.1496 4.76348 10.1496H4.77156ZM11.7052 2.76319H5.8019L5.80217 3.62652C5.80217 3.99806 5.50063 4.2996 5.1291 4.2996C4.75756 4.2996 4.45602 3.99806 4.45602 3.62652L4.45554 2.78357C2.44509 2.95246 1.34615 4.17114 1.34615 6.25789V6.64459H16.1538L16.1538 6.25789C16.1574 5.14956 15.8594 4.28802 15.268 3.69572C14.7489 3.17503 13.9899 2.86407 13.0526 2.784L13.0518 3.62652C13.0518 3.99806 12.7503 4.2996 12.3787 4.2996C12.0072 4.2996 11.7057 3.99806 11.7057 3.62652L11.7052 2.76319Z" fill="#373A43"/>
</svg>
