<svg width="20" height="20" viewBox="0 0 20 20" fill="none" xmlns="http://www.w3.org/2000/svg">
<path d="M13.3174 1.03823C13.901 1.2816 14.3137 1.72028 14.6836 2.36341L14.8055 2.58536L15.2578 3.49384L15.2726 3.51921L15.2862 3.54129L15.3246 3.5963C15.5306 3.8315 15.8754 3.97359 16.103 3.97359C18.1878 3.97359 19.8905 5.68888 19.9949 7.84526L20 8.05527V14.1265C20 16.9258 17.8898 19.2102 15.2455 19.3285L15.03 19.3333H4.97C2.29734 19.3333 0.117471 17.1229 0.00459171 14.3523L0 14.1265V8.05527C0 5.80133 1.74498 3.97359 3.897 3.97359C4.12377 3.97359 4.46908 3.8313 4.67544 3.5963L4.68255 3.58752L4.69145 3.57531L4.74287 3.49267L5.19382 2.58565C5.59577 1.82031 6.03303 1.30869 6.68188 1.03813C7.87089 0.542816 12.1293 0.542816 13.3174 1.03823ZM7.23635 2.49831C7.01496 2.59063 6.81452 2.80431 6.60062 3.17476L6.50802 3.34322L6.12316 4.12278L6.02843 4.30238C5.94936 4.44018 5.87026 4.5565 5.77995 4.65959C5.31953 5.1839 4.65847 5.48673 4.07082 5.53746L3.897 5.54508L3.7329 5.55087C2.53997 5.63538 1.58621 6.63436 1.50553 7.88345L1.5 8.05527V14.1265C1.5 16.067 2.95174 17.6529 4.77961 17.7565L4.97 17.7618H15.03C16.8819 17.7618 18.396 16.2403 18.4949 14.3259L18.5 14.1265V8.05527C18.5 6.72707 17.5142 5.63922 16.2671 5.55087L16.103 5.54508L15.9289 5.53745C15.3403 5.48672 14.6793 5.18381 14.2194 4.65889C14.1303 4.55717 14.0517 4.44167 13.973 4.30504L13.9542 4.27117L13.9317 4.2291L13.8156 4.00098L13.4917 3.34351C13.2729 2.92748 13.0726 2.67322 12.8564 2.54543L12.7626 2.49831L12.6433 2.45676C11.6142 2.15201 8.03441 2.16586 7.23635 2.49831ZM9.9997 7.1613C12.1699 7.1613 13.9287 9.00391 13.9287 11.2776C13.9287 13.5512 12.1699 15.3938 9.9997 15.3938C7.82949 15.3938 6.0707 13.5512 6.0707 11.2776C6.0707 9.00391 7.82949 7.1613 9.9997 7.1613ZM9.9997 8.73279C8.65791 8.73279 7.5707 9.87182 7.5707 11.2776C7.5707 12.6833 8.65791 13.8223 9.9997 13.8223C11.3415 13.8223 12.4287 12.6833 12.4287 11.2776C12.4287 9.87182 11.3415 8.73279 9.9997 8.73279ZM15.5043 6.42899C16.0566 6.42899 16.5043 6.89804 16.5043 7.47665C16.5043 8.01393 16.1183 8.45674 15.6209 8.51726L15.5043 8.52431C14.943 8.52431 14.4953 8.05525 14.4953 7.47665C14.4953 6.93937 14.8813 6.49656 15.3787 6.43604L15.5043 6.42899Z" fill="white"/>
</svg>
