<svg width="20" height="20" viewBox="0 0 20 20" fill="none" xmlns="http://www.w3.org/2000/svg">
<path d="M13.3174 1.03807C13.901 1.28145 14.3137 1.72013 14.6836 2.36325L14.8055 2.58521L15.2578 3.49369L15.2726 3.51906L15.2862 3.54114L15.3246 3.59615C15.5306 3.83135 15.8754 3.97344 16.103 3.97344C18.1878 3.97344 19.8905 5.68873 19.9949 7.8451L20 8.05512V14.1263C20 16.9256 17.8898 19.2101 15.2455 19.3284L15.03 19.3332H4.97C2.29734 19.3332 0.117471 17.1227 0.00459171 14.3521L0 14.1263V8.05512C0 5.80118 1.74498 3.97344 3.897 3.97344C4.12377 3.97344 4.46908 3.83114 4.67544 3.59615L4.68255 3.58737L4.69145 3.57516L4.74287 3.49251L5.19382 2.5855C5.59577 1.82016 6.03303 1.30854 6.68188 1.03798C7.87089 0.542663 12.1293 0.542663 13.3174 1.03807ZM7.23635 2.49816C7.01496 2.59048 6.81452 2.80416 6.60062 3.17461L6.50802 3.34307L6.12316 4.12263L6.02843 4.30223C5.94936 4.44002 5.87026 4.55634 5.77995 4.65944C5.31953 5.18375 4.65847 5.48658 4.07082 5.5373L3.897 5.54493L3.7329 5.55072C2.53997 5.63523 1.58621 6.63421 1.50553 7.8833L1.5 8.05512V14.1263C1.5 16.0669 2.95174 17.6527 4.77961 17.7563L4.97 17.7617H15.03C16.8819 17.7617 18.396 16.2401 18.4949 14.3257L18.5 14.1263V8.05512C18.5 6.72691 17.5142 5.63907 16.2671 5.55072L16.103 5.54493L15.9289 5.5373C15.3403 5.48657 14.6793 5.18366 14.2194 4.65874C14.1303 4.55701 14.0517 4.44152 13.973 4.30489L13.9542 4.27102L13.9317 4.22895L13.8156 4.00083L13.4917 3.34336C13.2729 2.92732 13.0726 2.67306 12.8564 2.54528L12.7626 2.49816L12.6433 2.4566C11.6142 2.15186 8.03441 2.16571 7.23635 2.49816ZM9.9997 7.16115C12.1699 7.16115 13.9287 9.00376 13.9287 11.2774C13.9287 13.551 12.1699 15.3937 9.9997 15.3937C7.82949 15.3937 6.0707 13.551 6.0707 11.2774C6.0707 9.00376 7.82949 7.16115 9.9997 7.16115ZM9.9997 8.73264C8.65791 8.73264 7.5707 9.87167 7.5707 11.2774C7.5707 12.6831 8.65791 13.8222 9.9997 13.8222C11.3415 13.8222 12.4287 12.6831 12.4287 11.2774C12.4287 9.87167 11.3415 8.73264 9.9997 8.73264ZM15.5043 6.42884C16.0566 6.42884 16.5043 6.89789 16.5043 7.4765C16.5043 8.01377 16.1183 8.45659 15.6209 8.51711L15.5043 8.52416C14.943 8.52416 14.4953 8.0551 14.4953 7.4765C14.4953 6.93922 14.8813 6.4964 15.3787 6.43589L15.5043 6.42884Z" fill="#373A43"/>
</svg>
