<svg width="19" height="17" viewBox="0 0 19 17" fill="none" xmlns="http://www.w3.org/2000/svg">
<path d="M16.5969 2.30315C16.1839 1.89001 15.6936 1.56228 15.154 1.33868C14.6143 1.11509 14.0359 1 13.4518 1C12.8677 1 12.2893 1.11509 11.7497 1.33868C11.21 1.56228 10.7197 1.89001 10.3068 2.30315L9.44978 3.16015L8.59278 2.30315C7.75867 1.46903 6.62737 1.00043 5.44775 1.00043C4.26813 1.00043 3.13683 1.46903 2.30272 2.30315C1.4686 3.13726 1 4.26857 1 5.44818C1 6.6278 1.4686 7.7591 2.30272 8.59322L3.15972 9.45022L9.44978 15.7403L15.7399 9.45022L16.5969 8.59322C17.01 8.18027 17.3377 7.68998 17.5613 7.15034C17.7849 6.61071 17.9 6.03231 17.9 5.44818C17.9 4.86406 17.7849 4.28565 17.5613 3.74602C17.3377 3.20638 17.01 2.71609 16.5969 2.30315V2.30315Z" stroke="#373A43" stroke-width="1.5" stroke-linecap="round" stroke-linejoin="round"/>
</svg>
