<svg width="88" height="63" viewBox="0 0 88 63" fill="none" xmlns="http://www.w3.org/2000/svg">
<path opacity="0.3" fill-rule="evenodd" clip-rule="evenodd" d="M87.5 11.9359C87.5 21.2154 75.2592 29.1667 75.2592 29.1667C75.2592 29.1667 63.0185 21.2154 63 11.9359C63 8.76446 64.2889 5.73756 66.5887 3.49675C68.8885 1.25594 72.0043 0 75.25 0C78.5049 0 81.6114 1.25594 83.9112 3.49675C86.211 5.73756 87.5 8.77349 87.5 11.9359ZM75.2592 15.9116C77.5126 15.9116 79.3395 14.1316 79.3395 11.9359C79.3395 9.74029 77.5126 7.9603 75.2592 7.9603C73.0058 7.9603 71.179 9.74029 71.179 11.9359C71.179 14.1316 73.0058 15.9116 75.2592 15.9116ZM5.18385 6.99999H54.9598C57.317 18.695 65.2078 28.4227 75.8333 33.4361V57.8959C75.8333 60.7154 73.513 63 70.6495 63H5.18385C2.3203 63 0 60.7154 0 57.8959V12.1041C0 9.2846 2.3203 6.99999 5.18385 6.99999Z" fill="#38D0B7"/>
<path fill-rule="evenodd" clip-rule="evenodd" d="M52.4776 33.7371L60.2906 47.2603C61.6371 49.6042 59.9499 52.5299 57.2569 52.5299H41.6392H30.0609H26.0215H22.0152H13.9695C12.5731 52.5299 11.7004 51.0172 12.3986 49.812L16.4214 42.8468L20.4443 35.8816C21.1425 34.6764 22.8796 34.6764 23.5778 35.8816L26.5617 41.0514L30.7841 33.7371L38.5888 20.214C39.9436 17.8701 43.3181 17.8701 44.6729 20.214L52.4776 33.7371ZM26.1296 27.4369C26.1296 29.6954 24.2987 31.5262 22.0402 31.5262C19.7817 31.5262 17.9509 29.6954 17.9509 27.4369C17.9509 25.1784 19.7817 23.3475 22.0402 23.3475C24.2987 23.3475 26.1296 25.1784 26.1296 27.4369Z" fill="white"/>
</svg>
