<svg width="24" height="24" viewBox="0 0 24 24" fill="none" xmlns="http://www.w3.org/2000/svg">
<path fill-rule="evenodd" clip-rule="evenodd" d="M5.75 11.6667C5.75 8.39898 8.39898 5.75 11.6667 5.75C14.9344 5.75 17.5833 8.39898 17.5833 11.6667C17.5833 13.2631 16.9511 14.7118 15.9234 15.7761C15.896 15.7968 15.8697 15.8197 15.8447 15.8447C15.8197 15.8697 15.7968 15.896 15.7761 15.9234C14.7118 16.9511 13.2631 17.5833 11.6667 17.5833C8.39898 17.5833 5.75 14.9344 5.75 11.6667ZM16.354 17.4147C15.0764 18.4577 13.4446 19.0833 11.6667 19.0833C7.57056 19.0833 4.25 15.7628 4.25 11.6667C4.25 7.57056 7.57056 4.25 11.6667 4.25C15.7628 4.25 19.0833 7.57056 19.0833 11.6667C19.0833 13.4446 18.4577 15.0764 17.4147 16.354L20.5303 19.4697C20.8232 19.7626 20.8232 20.2374 20.5303 20.5303C20.2374 20.8232 19.7626 20.8232 19.4697 20.5303L16.354 17.4147Z" fill="#373A43"/>
</svg>
