<svg width="14" height="18" viewBox="0 0 14 18" fill="none" xmlns="http://www.w3.org/2000/svg">
<path fill-rule="evenodd" clip-rule="evenodd" d="M7 17.1111C7 17.1111 14 12.4444 14 7C14 5.14348 13.2625 3.36301 11.9497 2.05025C10.637 0.737498 8.85652 0 7 0C5.14348 0 3.36301 0.737498 2.05025 2.05025C0.737498 3.36301 0 5.14348 0 7C0 12.4444 7 17.1111 7 17.1111ZM9.33404 6.99991C9.33404 8.28858 8.28937 9.33325 7.0007 9.33325C5.71204 9.33325 4.66737 8.28858 4.66737 6.99991C4.66737 5.71125 5.71204 4.66658 7.0007 4.66658C8.28937 4.66658 9.33404 5.71125 9.33404 6.99991Z" fill="#38D0B7"/>
</svg>
