<svg width="20" height="23" viewBox="0 0 20 23" fill="none" xmlns="http://www.w3.org/2000/svg">
<path d="M19.935 18.4458V20.244C19.935 21.3905 19.0042 22.3188 17.8603 22.3188H2.63973C1.4933 22.3188 0.565002 21.3879 0.565002 20.244V18.4458C0.565002 15.2373 3.16728 12.635 6.37575 12.635H7.09861C8.06241 13.0764 9.12767 13.3275 10.2513 13.3275C11.3749 13.3275 12.4427 13.0764 13.4039 12.635H14.1268C17.3302 12.635 19.935 15.2373 19.935 18.4458ZM4.71445 5.71592C4.71445 2.65964 7.19245 0.181641 10.2487 0.181641C13.305 0.181641 15.783 2.65964 15.783 5.71592C15.783 8.77221 13.305 11.2502 10.2487 11.2502C7.19245 11.2502 4.71445 8.77221 4.71445 5.71592Z" fill="#D7D7D9"/>
</svg>
